<?xml version="1.0" encoding="UTF-8"?>
<svg xmlns="http://www.w3.org/2000/svg" version="1.1" viewBox="0 0 474.72 159.89">
  <defs>
    <style>
      .cls-1 {
        fill: none;
        stroke: #1d2a73;
        stroke-linecap: round;
        stroke-linejoin: round;
        stroke-width: 1.61px;
      }
    </style>
  </defs>
  <!-- Generator: Adobe Illustrator 28.6.0, SVG Export Plug-In . SVG Version: 1.2.0 Build 709)  -->
  <g>
    <g id="_レイヤー_1" data-name="レイヤー_1">
      <g>
        <path class="cls-1" d="M51.34,111.11c-1.24-1.07-2.25-2.42-2.72-3.77l-21.25-60-13.54,15.67c-1.88,2.19-2.65,6.19-1.7,8.92l19.3,55.41c.47,1.36,1.48,2.7,2.72,3.78l17.24-19.96s-.02-.03-.05-.05Z"/>
        <path class="cls-1" d="M85.31,85.96l17.24,3.29-11.47,13.28-5.77-16.57ZM78.24,117.41l-17.4,20.15-22.59-4.31c-1.41-.28-2.87-1.07-4.1-2.14h0l17.24-19.96c1.19.99,2.57,1.76,3.91,2.06l22.94,4.19ZM115.09,91.65l27.68,5.28-38.29,44.35c-1.87,2.17-5.72,3.51-8.55,2.98l-22.56-4.31,41.71-48.3Z"/>
        <path class="cls-1" d="M142.79,82.93c.94,2.72-.6,4.51-3.43,3.97l-57.56-10.99-8.74-25.12,62.69,11.97,7.03,20.16ZM132.27,52.72l-7.45-21.41c-1.32-2.23-3.88-4.21-6.28-4.67l-57.72-11.03,8.75,25.12,62.7,11.98ZM52.13,18.66l-3.42,3.96-10.96,12.7c-1.88,2.17-2.65,6.18-1.7,8.91l19.01,54.61c.95,2.72,4.04,5.38,6.87,5.93l16.46,3.14c2.83.54,4.37-1.23,3.43-3.95L52.13,18.66Z"/>
        <g>
          <path class="cls-1" d="M228.68,36.02h-27.43c-14.74,0-26.11,7.35-32.03,20.7-3.99,9.01-4.1,17.75-4.1,18.71v64.22c0,1.54,1.26,2.8,2.8,2.8h15.43c1.54,0,2.8-1.26,2.8-2.8v-40.34l33.53-4.57c1.49-.36,2.71-1.92,2.71-3.45v-12.24c0-1.53-1.22-2.49-2.71-2.12l-33.53,4.56v-6c0-.33.16-5.72,2.5-10.67,2.53-5.38,6.41-7.78,12.61-7.78h27.43c1.53,0,2.79-1.26,2.79-2.79v-15.44c0-1.54-1.26-2.79-2.79-2.79Z"/>
          <path class="cls-1" d="M298.32,43.9h-29.41c-14.74,0-26.11,7.36-32.03,20.71-3.99,9-4.1,17.75-4.1,18.71v19.38c0,.96.12,9.72,4.1,18.71,5.92,13.35,17.29,20.71,32.03,20.71h29.41c1.53,0,2.79-1.26,2.79-2.8v-15.43c0-1.54-1.25-2.8-2.79-2.8h-29.41c-6.19,0-10.08-2.4-12.61-7.77-1.36-2.89-1.98-6.51-2.25-8.6l35.56-5.36c1.48-.36,2.71-1.92,2.71-3.46v-12.23c0-1.54-1.23-2.5-2.71-2.13l-35.76,5.41v-4.52c.14-1.69.61-5.61,2.26-9.31,2.54-5.75,6.37-8.2,12.8-8.2h29.41c1.53,0,2.79-1.26,2.79-2.79v-15.43c0-1.53-1.25-2.8-2.79-2.8Z"/>
          <path class="cls-1" d="M372.56,43.9h-29.4c-14.74,0-26.12,7.36-32.04,20.71-3.99,9-4.1,17.75-4.1,18.71v19.38c0,.96.11,9.72,4.1,18.71,5.92,13.35,17.3,20.71,32.04,20.71h29.4c1.53,0,2.79-1.26,2.79-2.8v-15.43c0-1.54-1.25-2.8-2.79-2.8h-29.4c-6.21,0-10.1-2.4-12.62-7.77-1.36-2.89-1.98-6.51-2.26-8.6l35.57-5.36c1.49-.36,2.71-1.92,2.71-3.46v-12.23c0-1.54-1.22-2.5-2.71-2.13l-35.75,5.41v-4.52c.12-1.69.61-5.61,2.25-9.31,2.55-5.75,6.38-8.2,12.82-8.2h29.4c1.53,0,2.79-1.26,2.79-2.79v-15.43c0-1.53-1.25-2.8-2.79-2.8Z"/>
          <path class="cls-1" d="M458.62,64.61c-5.91-13.35-17.29-20.71-32.03-20.71h-39.91c-1.53,0-2.79,1.27-2.79,2.8v92.63c0,1.54,1.25,2.8,2.79,2.8h39.91c14.74,0,26.11-7.36,32.03-20.71,4-9,4.1-17.75,4.1-18.71v-19.38c0-.97-.1-9.71-4.1-18.71ZM441.72,102.66c0,.32-.17,5.71-2.51,10.67-2.52,5.38-6.42,7.77-12.61,7.77h-18.89c-1.53,0-2.79-1.25-2.79-2.79v-50.59c0-1.54,1.26-2.79,2.79-2.79h18.89c6.19,0,10.09,2.4,12.61,7.77,2.34,4.97,2.5,10.35,2.51,10.68v19.28Z"/>
        </g>
      </g>
    </g>
  </g>
</svg>